<mxfile host="Electron" agent="Mozilla/5.0 (Macintosh; Intel Mac OS X 10_15_7) AppleWebKit/537.36 (KHTML, like Gecko) draw.io/26.0.7 Chrome/128.0.6613.186 Electron/32.2.5 Safari/537.36" version="26.0.7">
  <diagram name="Seite-1" id="cMu12UTUHUqs-usWebE3">
    <mxGraphModel dx="954" dy="674" grid="1" gridSize="10" guides="1" tooltips="1" connect="1" arrows="1" fold="1" page="1" pageScale="1" pageWidth="827" pageHeight="1169" math="0" shadow="0">
      <root>
        <mxCell id="0" />
        <mxCell id="1" parent="0" />
        <mxCell id="oK9O7coXOYyoZTUPbsf2-367" value="" style="rounded=0;whiteSpace=wrap;html=1;fillColor=#E6E6E6;" parent="1" vertex="1">
          <mxGeometry x="50" y="380" width="1130" height="390" as="geometry" />
        </mxCell>
        <mxCell id="oK9O7coXOYyoZTUPbsf2-366" value="&lt;font style=&quot;font-size: 16px;&quot;&gt;STEP 4:&lt;/font&gt;&lt;div&gt;Forward pass on model 1; on the same tokens that produced the original hidden states. Train against updated hidden states from previous step.&lt;/div&gt;&lt;div&gt;Optional: also train against the ground-truth tokens.&lt;/div&gt;" style="rounded=0;whiteSpace=wrap;html=1;fillColor=#FFFFFF;verticalAlign=top;" parent="1" vertex="1">
          <mxGeometry x="765" y="392.51" width="405" height="367.75" as="geometry" />
        </mxCell>
        <mxCell id="oK9O7coXOYyoZTUPbsf2-365" value="&lt;font style=&quot;font-size: 16px;&quot;&gt;STEP 3:&lt;/font&gt;&lt;div&gt;Backward pass on model 2.&lt;/div&gt;&lt;div&gt;Treat input-hidden-states as parameters and update them.&lt;/div&gt;" style="rounded=0;whiteSpace=wrap;html=1;fillColor=#FFFFFF;verticalAlign=top;" parent="1" vertex="1">
          <mxGeometry x="520" y="410" width="217.5" height="332.75" as="geometry" />
        </mxCell>
        <mxCell id="oK9O7coXOYyoZTUPbsf2-364" value="&lt;font style=&quot;font-size: 16px;&quot;&gt;STEP 2:&lt;/font&gt;&lt;div&gt;Forward pass on model 2.&lt;/div&gt;&lt;div&gt;Calculate loss with respect to target tokens.&lt;/div&gt;" style="rounded=0;whiteSpace=wrap;html=1;fillColor=#FFFFFF;verticalAlign=top;" parent="1" vertex="1">
          <mxGeometry x="288.75" y="410" width="217.5" height="332.75" as="geometry" />
        </mxCell>
        <mxCell id="oK9O7coXOYyoZTUPbsf2-363" value="&lt;font style=&quot;font-size: 16px;&quot;&gt;STEP 1:&lt;/font&gt;&lt;div&gt;Forward pass on model 1.&lt;/div&gt;&lt;div&gt;Produce dataset of hidden states.&lt;/div&gt;" style="rounded=0;whiteSpace=wrap;html=1;fillColor=#FFFFFF;verticalAlign=top;" parent="1" vertex="1">
          <mxGeometry x="58.75" y="410" width="217.5" height="332.75" as="geometry" />
        </mxCell>
        <mxCell id="oK9O7coXOYyoZTUPbsf2-262" value="h1*" style="rounded=1;whiteSpace=wrap;html=1;fillColor=light-dark(#fd0101, #32b532);fontColor=#FFFFFF;" parent="1" vertex="1">
          <mxGeometry x="780" y="473.76" width="25" height="22.5" as="geometry" />
        </mxCell>
        <mxCell id="oK9O7coXOYyoZTUPbsf2-263" value="h2*" style="rounded=1;whiteSpace=wrap;html=1;fillColor=light-dark(#fd0101, #32b532);fontColor=#FFFFFF;" parent="1" vertex="1">
          <mxGeometry x="810" y="473.76" width="25" height="22.5" as="geometry" />
        </mxCell>
        <mxCell id="oK9O7coXOYyoZTUPbsf2-264" value="h3*" style="rounded=1;whiteSpace=wrap;html=1;fillColor=light-dark(#fd0101, #32b532);fontColor=#FFFFFF;" parent="1" vertex="1">
          <mxGeometry x="840" y="473.76" width="25" height="22.5" as="geometry" />
        </mxCell>
        <mxCell id="oK9O7coXOYyoZTUPbsf2-265" value="h4*" style="rounded=1;whiteSpace=wrap;html=1;fillColor=light-dark(#fd0101, #32b532);fontColor=#FFFFFF;" parent="1" vertex="1">
          <mxGeometry x="870" y="473.76" width="25" height="22.5" as="geometry" />
        </mxCell>
        <mxCell id="oK9O7coXOYyoZTUPbsf2-266" value="h5*" style="rounded=1;whiteSpace=wrap;html=1;fillColor=light-dark(#fd0101, #32b532);fontColor=#FFFFFF;" parent="1" vertex="1">
          <mxGeometry x="900" y="473.76" width="25" height="22.5" as="geometry" />
        </mxCell>
        <mxCell id="oK9O7coXOYyoZTUPbsf2-267" value="h6*" style="rounded=1;whiteSpace=wrap;html=1;fillColor=light-dark(#fd0101, #32b532);fontColor=#FFFFFF;" parent="1" vertex="1">
          <mxGeometry x="930" y="473.76" width="25" height="22.5" as="geometry" />
        </mxCell>
        <mxCell id="oK9O7coXOYyoZTUPbsf2-268" style="edgeStyle=orthogonalEdgeStyle;rounded=0;orthogonalLoop=1;jettySize=auto;html=1;exitX=0.5;exitY=0;exitDx=0;exitDy=0;entryX=0.5;entryY=1;entryDx=0;entryDy=0;" parent="1" source="oK9O7coXOYyoZTUPbsf2-274" target="oK9O7coXOYyoZTUPbsf2-298" edge="1">
          <mxGeometry relative="1" as="geometry">
            <Array as="points">
              <mxPoint x="168" y="540" />
              <mxPoint x="93" y="540" />
            </Array>
          </mxGeometry>
        </mxCell>
        <mxCell id="oK9O7coXOYyoZTUPbsf2-269" style="edgeStyle=orthogonalEdgeStyle;rounded=0;orthogonalLoop=1;jettySize=auto;html=1;exitX=0.5;exitY=0;exitDx=0;exitDy=0;entryX=0.5;entryY=1;entryDx=0;entryDy=0;" parent="1" source="oK9O7coXOYyoZTUPbsf2-274" target="oK9O7coXOYyoZTUPbsf2-299" edge="1">
          <mxGeometry relative="1" as="geometry">
            <Array as="points">
              <mxPoint x="168" y="540" />
              <mxPoint x="123" y="540" />
            </Array>
          </mxGeometry>
        </mxCell>
        <mxCell id="oK9O7coXOYyoZTUPbsf2-270" style="edgeStyle=orthogonalEdgeStyle;rounded=0;orthogonalLoop=1;jettySize=auto;html=1;exitX=0.5;exitY=0;exitDx=0;exitDy=0;entryX=0.5;entryY=1;entryDx=0;entryDy=0;" parent="1" source="oK9O7coXOYyoZTUPbsf2-274" target="oK9O7coXOYyoZTUPbsf2-300" edge="1">
          <mxGeometry relative="1" as="geometry">
            <Array as="points">
              <mxPoint x="168" y="540" />
              <mxPoint x="153" y="540" />
            </Array>
          </mxGeometry>
        </mxCell>
        <mxCell id="oK9O7coXOYyoZTUPbsf2-271" style="edgeStyle=orthogonalEdgeStyle;rounded=0;orthogonalLoop=1;jettySize=auto;html=1;exitX=0.5;exitY=0;exitDx=0;exitDy=0;entryX=0.5;entryY=1;entryDx=0;entryDy=0;" parent="1" source="oK9O7coXOYyoZTUPbsf2-274" target="oK9O7coXOYyoZTUPbsf2-301" edge="1">
          <mxGeometry relative="1" as="geometry">
            <Array as="points">
              <mxPoint x="168" y="540" />
              <mxPoint x="183" y="540" />
            </Array>
          </mxGeometry>
        </mxCell>
        <mxCell id="oK9O7coXOYyoZTUPbsf2-272" style="edgeStyle=orthogonalEdgeStyle;rounded=0;orthogonalLoop=1;jettySize=auto;html=1;exitX=0.5;exitY=0;exitDx=0;exitDy=0;entryX=0.5;entryY=1;entryDx=0;entryDy=0;" parent="1" source="oK9O7coXOYyoZTUPbsf2-274" target="oK9O7coXOYyoZTUPbsf2-302" edge="1">
          <mxGeometry relative="1" as="geometry">
            <Array as="points">
              <mxPoint x="168" y="540" />
              <mxPoint x="213" y="540" />
            </Array>
          </mxGeometry>
        </mxCell>
        <mxCell id="oK9O7coXOYyoZTUPbsf2-273" style="edgeStyle=orthogonalEdgeStyle;rounded=0;orthogonalLoop=1;jettySize=auto;html=1;exitX=0.5;exitY=0;exitDx=0;exitDy=0;entryX=0.5;entryY=1;entryDx=0;entryDy=0;" parent="1" source="oK9O7coXOYyoZTUPbsf2-274" target="oK9O7coXOYyoZTUPbsf2-303" edge="1">
          <mxGeometry relative="1" as="geometry">
            <Array as="points">
              <mxPoint x="168" y="540" />
              <mxPoint x="243" y="540" />
            </Array>
          </mxGeometry>
        </mxCell>
        <mxCell id="oK9O7coXOYyoZTUPbsf2-274" value="Embedding" style="rounded=1;whiteSpace=wrap;html=1;fillColor=#009999;fontColor=#FFFFFF;" parent="1" vertex="1">
          <mxGeometry x="82.5" y="676.25" width="170" height="30" as="geometry" />
        </mxCell>
        <mxCell id="oK9O7coXOYyoZTUPbsf2-275" value="" style="shape=mxgraph.signs.nature.snowflake;html=1;pointerEvents=1;fillColor=#FFFFFF;strokeColor=none;verticalLabelPosition=bottom;verticalAlign=top;align=center;" parent="1" vertex="1">
          <mxGeometry x="92.5" y="683.75" width="15" height="15" as="geometry" />
        </mxCell>
        <mxCell id="oK9O7coXOYyoZTUPbsf2-276" value="LM head" style="rounded=1;whiteSpace=wrap;html=1;fillColor=#009999;fontColor=#FFFFFF;" parent="1" vertex="1">
          <mxGeometry x="312.5" y="525.25" width="170" height="30" as="geometry" />
        </mxCell>
        <mxCell id="oK9O7coXOYyoZTUPbsf2-277" value="" style="shape=mxgraph.signs.nature.snowflake;html=1;pointerEvents=1;fillColor=#FFFFFF;strokeColor=none;verticalLabelPosition=bottom;verticalAlign=top;align=center;" parent="1" vertex="1">
          <mxGeometry x="322.5" y="532.75" width="15" height="15" as="geometry" />
        </mxCell>
        <mxCell id="oK9O7coXOYyoZTUPbsf2-278" value="t1" style="rounded=1;whiteSpace=wrap;html=1;fillColor=#0000CC;fontColor=#FFFFFF;" parent="1" vertex="1">
          <mxGeometry x="80" y="713.25" width="25" height="22.5" as="geometry" />
        </mxCell>
        <mxCell id="oK9O7coXOYyoZTUPbsf2-279" value="t2" style="rounded=1;whiteSpace=wrap;html=1;fillColor=#0000CC;fontColor=#FFFFFF;" parent="1" vertex="1">
          <mxGeometry x="110" y="713.25" width="25" height="22.5" as="geometry" />
        </mxCell>
        <mxCell id="oK9O7coXOYyoZTUPbsf2-280" value="t3" style="rounded=1;whiteSpace=wrap;html=1;fillColor=#0000CC;fontColor=#FFFFFF;" parent="1" vertex="1">
          <mxGeometry x="140" y="713.25" width="25" height="22.5" as="geometry" />
        </mxCell>
        <mxCell id="oK9O7coXOYyoZTUPbsf2-281" value="t4" style="rounded=1;whiteSpace=wrap;html=1;fillColor=#0000CC;fontColor=#FFFFFF;" parent="1" vertex="1">
          <mxGeometry x="170" y="713.25" width="25" height="22.5" as="geometry" />
        </mxCell>
        <mxCell id="oK9O7coXOYyoZTUPbsf2-282" value="t5" style="rounded=1;whiteSpace=wrap;html=1;fillColor=#0000CC;fontColor=#FFFFFF;" parent="1" vertex="1">
          <mxGeometry x="200" y="713.25" width="25" height="22.5" as="geometry" />
        </mxCell>
        <mxCell id="oK9O7coXOYyoZTUPbsf2-283" value="t6" style="rounded=1;whiteSpace=wrap;html=1;fillColor=#0000CC;fontColor=#FFFFFF;" parent="1" vertex="1">
          <mxGeometry x="230" y="713.25" width="25" height="22.5" as="geometry" />
        </mxCell>
        <mxCell id="oK9O7coXOYyoZTUPbsf2-284" value="LM head" style="rounded=1;whiteSpace=wrap;html=1;fillColor=#009999;fontColor=#FFFFFF;" parent="1" vertex="1">
          <mxGeometry x="982.5" y="503.76" width="170" height="30" as="geometry" />
        </mxCell>
        <mxCell id="oK9O7coXOYyoZTUPbsf2-285" value="" style="shape=mxgraph.signs.nature.snowflake;html=1;pointerEvents=1;fillColor=#FFFFFF;strokeColor=none;verticalLabelPosition=bottom;verticalAlign=top;align=center;" parent="1" vertex="1">
          <mxGeometry x="992.5" y="511.26" width="15" height="15" as="geometry" />
        </mxCell>
        <mxCell id="oK9O7coXOYyoZTUPbsf2-286" value="t7" style="rounded=1;whiteSpace=wrap;html=1;fillColor=light-dark(#fd0101, #d4d4ff);fontColor=#FFFFFF;" parent="1" vertex="1">
          <mxGeometry x="1130" y="473.76" width="25" height="22.5" as="geometry" />
        </mxCell>
        <mxCell id="oK9O7coXOYyoZTUPbsf2-287" value="t2" style="rounded=1;whiteSpace=wrap;html=1;fillColor=light-dark(#fd0101, #d4d4ff);fontColor=#FFFFFF;" parent="1" vertex="1">
          <mxGeometry x="980" y="473.76" width="25" height="22.5" as="geometry" />
        </mxCell>
        <mxCell id="oK9O7coXOYyoZTUPbsf2-288" value="t3" style="rounded=1;whiteSpace=wrap;html=1;fillColor=light-dark(#fd0101, #d4d4ff);fontColor=#FFFFFF;" parent="1" vertex="1">
          <mxGeometry x="1010" y="473.76" width="25" height="22.5" as="geometry" />
        </mxCell>
        <mxCell id="oK9O7coXOYyoZTUPbsf2-289" value="t4" style="rounded=1;whiteSpace=wrap;html=1;fillColor=light-dark(#fd0101, #d4d4ff);fontColor=#FFFFFF;" parent="1" vertex="1">
          <mxGeometry x="1040" y="473.76" width="25" height="22.5" as="geometry" />
        </mxCell>
        <mxCell id="oK9O7coXOYyoZTUPbsf2-290" value="t5" style="rounded=1;whiteSpace=wrap;html=1;fillColor=light-dark(#fd0101, #d4d4ff);fontColor=#FFFFFF;" parent="1" vertex="1">
          <mxGeometry x="1070" y="473.76" width="25" height="22.5" as="geometry" />
        </mxCell>
        <mxCell id="oK9O7coXOYyoZTUPbsf2-291" value="t6" style="rounded=1;whiteSpace=wrap;html=1;fillColor=light-dark(#fd0101, #d4d4ff);fontColor=#FFFFFF;" parent="1" vertex="1">
          <mxGeometry x="1100" y="473.76" width="25" height="22.5" as="geometry" />
        </mxCell>
        <mxCell id="oK9O7coXOYyoZTUPbsf2-292" value="t7" style="rounded=1;whiteSpace=wrap;html=1;fillColor=#FF0000;fontColor=#FFFFFF;" parent="1" vertex="1">
          <mxGeometry x="460" y="495.25" width="25" height="22.5" as="geometry" />
        </mxCell>
        <mxCell id="oK9O7coXOYyoZTUPbsf2-293" value="t2" style="rounded=1;whiteSpace=wrap;html=1;fillColor=#FF0000;fontColor=#FFFFFF;" parent="1" vertex="1">
          <mxGeometry x="310" y="495.25" width="25" height="22.5" as="geometry" />
        </mxCell>
        <mxCell id="oK9O7coXOYyoZTUPbsf2-294" value="t3" style="rounded=1;whiteSpace=wrap;html=1;fillColor=#FF0000;fontColor=#FFFFFF;" parent="1" vertex="1">
          <mxGeometry x="340" y="495.25" width="25" height="22.5" as="geometry" />
        </mxCell>
        <mxCell id="oK9O7coXOYyoZTUPbsf2-295" value="t4" style="rounded=1;whiteSpace=wrap;html=1;fillColor=#FF0000;fontColor=#FFFFFF;" parent="1" vertex="1">
          <mxGeometry x="370" y="495.25" width="25" height="22.5" as="geometry" />
        </mxCell>
        <mxCell id="oK9O7coXOYyoZTUPbsf2-296" value="t5" style="rounded=1;whiteSpace=wrap;html=1;fillColor=#FF0000;fontColor=#FFFFFF;" parent="1" vertex="1">
          <mxGeometry x="400" y="495.25" width="25" height="22.5" as="geometry" />
        </mxCell>
        <mxCell id="oK9O7coXOYyoZTUPbsf2-297" value="t6" style="rounded=1;whiteSpace=wrap;html=1;fillColor=#FF0000;fontColor=#FFFFFF;" parent="1" vertex="1">
          <mxGeometry x="430" y="495.25" width="25" height="22.5" as="geometry" />
        </mxCell>
        <mxCell id="oK9O7coXOYyoZTUPbsf2-298" value="h1" style="rounded=1;whiteSpace=wrap;html=1;fillColor=#009900;fontColor=#FFFFFF;" parent="1" vertex="1">
          <mxGeometry x="80" y="495.25" width="25" height="22.5" as="geometry" />
        </mxCell>
        <mxCell id="oK9O7coXOYyoZTUPbsf2-299" value="h2" style="rounded=1;whiteSpace=wrap;html=1;fillColor=#009900;fontColor=#FFFFFF;" parent="1" vertex="1">
          <mxGeometry x="110" y="495.25" width="25" height="22.5" as="geometry" />
        </mxCell>
        <mxCell id="oK9O7coXOYyoZTUPbsf2-300" value="h3" style="rounded=1;whiteSpace=wrap;html=1;fillColor=#009900;fontColor=#FFFFFF;" parent="1" vertex="1">
          <mxGeometry x="140" y="495.25" width="25" height="22.5" as="geometry" />
        </mxCell>
        <mxCell id="oK9O7coXOYyoZTUPbsf2-301" value="h4" style="rounded=1;whiteSpace=wrap;html=1;fillColor=#009900;fontColor=#FFFFFF;" parent="1" vertex="1">
          <mxGeometry x="170" y="495.25" width="25" height="22.5" as="geometry" />
        </mxCell>
        <mxCell id="oK9O7coXOYyoZTUPbsf2-302" value="h5" style="rounded=1;whiteSpace=wrap;html=1;fillColor=#009900;fontColor=#FFFFFF;" parent="1" vertex="1">
          <mxGeometry x="200" y="495.25" width="25" height="22.5" as="geometry" />
        </mxCell>
        <mxCell id="oK9O7coXOYyoZTUPbsf2-303" value="h6" style="rounded=1;whiteSpace=wrap;html=1;fillColor=#009900;fontColor=#FFFFFF;" parent="1" vertex="1">
          <mxGeometry x="230" y="495.25" width="25" height="22.5" as="geometry" />
        </mxCell>
        <mxCell id="oK9O7coXOYyoZTUPbsf2-304" style="edgeStyle=orthogonalEdgeStyle;rounded=0;orthogonalLoop=1;jettySize=auto;html=1;exitX=0.5;exitY=1;exitDx=0;exitDy=0;entryX=0.5;entryY=0;entryDx=0;entryDy=0;" parent="1" source="oK9O7coXOYyoZTUPbsf2-310" target="oK9O7coXOYyoZTUPbsf2-318" edge="1">
          <mxGeometry relative="1" as="geometry">
            <Array as="points">
              <mxPoint x="629.25" y="693" />
              <mxPoint x="554.25" y="693" />
            </Array>
          </mxGeometry>
        </mxCell>
        <mxCell id="oK9O7coXOYyoZTUPbsf2-305" style="edgeStyle=orthogonalEdgeStyle;rounded=0;orthogonalLoop=1;jettySize=auto;html=1;exitX=0.5;exitY=1;exitDx=0;exitDy=0;entryX=0.5;entryY=0;entryDx=0;entryDy=0;" parent="1" source="oK9O7coXOYyoZTUPbsf2-310" target="oK9O7coXOYyoZTUPbsf2-319" edge="1">
          <mxGeometry relative="1" as="geometry">
            <Array as="points">
              <mxPoint x="629.25" y="693" />
              <mxPoint x="584.25" y="693" />
            </Array>
          </mxGeometry>
        </mxCell>
        <mxCell id="oK9O7coXOYyoZTUPbsf2-306" style="edgeStyle=orthogonalEdgeStyle;rounded=0;orthogonalLoop=1;jettySize=auto;html=1;exitX=0.5;exitY=1;exitDx=0;exitDy=0;entryX=0.5;entryY=0;entryDx=0;entryDy=0;" parent="1" source="oK9O7coXOYyoZTUPbsf2-310" target="oK9O7coXOYyoZTUPbsf2-320" edge="1">
          <mxGeometry relative="1" as="geometry">
            <Array as="points">
              <mxPoint x="629.25" y="693" />
              <mxPoint x="614.25" y="693" />
            </Array>
          </mxGeometry>
        </mxCell>
        <mxCell id="oK9O7coXOYyoZTUPbsf2-307" style="edgeStyle=orthogonalEdgeStyle;rounded=0;orthogonalLoop=1;jettySize=auto;html=1;exitX=0.5;exitY=1;exitDx=0;exitDy=0;entryX=0.5;entryY=0;entryDx=0;entryDy=0;" parent="1" source="oK9O7coXOYyoZTUPbsf2-310" target="oK9O7coXOYyoZTUPbsf2-321" edge="1">
          <mxGeometry relative="1" as="geometry">
            <Array as="points">
              <mxPoint x="629.25" y="693" />
              <mxPoint x="644.25" y="693" />
            </Array>
          </mxGeometry>
        </mxCell>
        <mxCell id="oK9O7coXOYyoZTUPbsf2-308" style="edgeStyle=orthogonalEdgeStyle;rounded=0;orthogonalLoop=1;jettySize=auto;html=1;exitX=0.5;exitY=1;exitDx=0;exitDy=0;entryX=0.5;entryY=0;entryDx=0;entryDy=0;" parent="1" source="oK9O7coXOYyoZTUPbsf2-310" target="oK9O7coXOYyoZTUPbsf2-322" edge="1">
          <mxGeometry relative="1" as="geometry">
            <Array as="points">
              <mxPoint x="629.25" y="693" />
              <mxPoint x="674.25" y="693" />
            </Array>
          </mxGeometry>
        </mxCell>
        <mxCell id="oK9O7coXOYyoZTUPbsf2-309" style="edgeStyle=orthogonalEdgeStyle;rounded=0;orthogonalLoop=1;jettySize=auto;html=1;exitX=0.5;exitY=1;exitDx=0;exitDy=0;entryX=0.5;entryY=0;entryDx=0;entryDy=0;" parent="1" source="oK9O7coXOYyoZTUPbsf2-310" target="oK9O7coXOYyoZTUPbsf2-323" edge="1">
          <mxGeometry relative="1" as="geometry">
            <Array as="points">
              <mxPoint x="629.25" y="693" />
              <mxPoint x="704.25" y="693" />
            </Array>
          </mxGeometry>
        </mxCell>
        <mxCell id="oK9O7coXOYyoZTUPbsf2-310" value="LM head" style="rounded=1;whiteSpace=wrap;html=1;fillColor=#009999;fontColor=#FFFFFF;" parent="1" vertex="1">
          <mxGeometry x="543.75" y="525.25" width="170" height="30" as="geometry" />
        </mxCell>
        <mxCell id="oK9O7coXOYyoZTUPbsf2-311" value="" style="shape=mxgraph.signs.nature.snowflake;html=1;pointerEvents=1;fillColor=#FFFFFF;strokeColor=none;verticalLabelPosition=bottom;verticalAlign=top;align=center;" parent="1" vertex="1">
          <mxGeometry x="553.75" y="532.75" width="15" height="15" as="geometry" />
        </mxCell>
        <mxCell id="oK9O7coXOYyoZTUPbsf2-312" value="t7" style="rounded=1;whiteSpace=wrap;html=1;fillColor=#FF0000;fontColor=#FFFFFF;" parent="1" vertex="1">
          <mxGeometry x="691.25" y="495.25" width="25" height="22.5" as="geometry" />
        </mxCell>
        <mxCell id="oK9O7coXOYyoZTUPbsf2-313" value="t2" style="rounded=1;whiteSpace=wrap;html=1;fillColor=#FF0000;fontColor=#FFFFFF;" parent="1" vertex="1">
          <mxGeometry x="541.25" y="495.25" width="25" height="22.5" as="geometry" />
        </mxCell>
        <mxCell id="oK9O7coXOYyoZTUPbsf2-314" value="t3" style="rounded=1;whiteSpace=wrap;html=1;fillColor=#FF0000;fontColor=#FFFFFF;" parent="1" vertex="1">
          <mxGeometry x="571.25" y="495.25" width="25" height="22.5" as="geometry" />
        </mxCell>
        <mxCell id="oK9O7coXOYyoZTUPbsf2-315" value="t4" style="rounded=1;whiteSpace=wrap;html=1;fillColor=#FF0000;fontColor=#FFFFFF;" parent="1" vertex="1">
          <mxGeometry x="601.25" y="495.25" width="25" height="22.5" as="geometry" />
        </mxCell>
        <mxCell id="oK9O7coXOYyoZTUPbsf2-316" value="t5" style="rounded=1;whiteSpace=wrap;html=1;fillColor=#FF0000;fontColor=#FFFFFF;" parent="1" vertex="1">
          <mxGeometry x="631.25" y="495.25" width="25" height="22.5" as="geometry" />
        </mxCell>
        <mxCell id="oK9O7coXOYyoZTUPbsf2-317" value="t6" style="rounded=1;whiteSpace=wrap;html=1;fillColor=#FF0000;fontColor=#FFFFFF;" parent="1" vertex="1">
          <mxGeometry x="661.25" y="495.25" width="25" height="22.5" as="geometry" />
        </mxCell>
        <mxCell id="oK9O7coXOYyoZTUPbsf2-318" value="h1*" style="rounded=1;whiteSpace=wrap;html=1;fillColor=light-dark(#0d9901, #32b532);fontColor=#FFFFFF;" parent="1" vertex="1">
          <mxGeometry x="541.25" y="713.25" width="25" height="22.5" as="geometry" />
        </mxCell>
        <mxCell id="oK9O7coXOYyoZTUPbsf2-319" value="h2*" style="rounded=1;whiteSpace=wrap;html=1;fillColor=light-dark(#0d9901, #32b532);fontColor=#FFFFFF;" parent="1" vertex="1">
          <mxGeometry x="571.25" y="713.25" width="25" height="22.5" as="geometry" />
        </mxCell>
        <mxCell id="oK9O7coXOYyoZTUPbsf2-320" value="h3*" style="rounded=1;whiteSpace=wrap;html=1;fillColor=light-dark(#0d9901, #32b532);fontColor=#FFFFFF;" parent="1" vertex="1">
          <mxGeometry x="601.25" y="713.25" width="25" height="22.5" as="geometry" />
        </mxCell>
        <mxCell id="oK9O7coXOYyoZTUPbsf2-321" value="h4*" style="rounded=1;whiteSpace=wrap;html=1;fillColor=light-dark(#0d9901, #32b532);fontColor=#FFFFFF;" parent="1" vertex="1">
          <mxGeometry x="631.25" y="713.25" width="25" height="22.5" as="geometry" />
        </mxCell>
        <mxCell id="oK9O7coXOYyoZTUPbsf2-322" value="h5*" style="rounded=1;whiteSpace=wrap;html=1;fillColor=light-dark(#0d9901, #32b532);fontColor=#FFFFFF;" parent="1" vertex="1">
          <mxGeometry x="661.25" y="713.25" width="25" height="22.5" as="geometry" />
        </mxCell>
        <mxCell id="oK9O7coXOYyoZTUPbsf2-323" value="h6*" style="rounded=1;whiteSpace=wrap;html=1;fillColor=light-dark(#0d9901, #32b532);fontColor=#FFFFFF;" parent="1" vertex="1">
          <mxGeometry x="691.25" y="713.25" width="25" height="22.5" as="geometry" />
        </mxCell>
        <mxCell id="oK9O7coXOYyoZTUPbsf2-324" value="Transformer 2" style="rounded=1;whiteSpace=wrap;html=1;fillColor=#990099;fontColor=#FFFFFF;" parent="1" vertex="1">
          <mxGeometry x="568.75" y="575.5" width="120" height="110" as="geometry" />
        </mxCell>
        <mxCell id="oK9O7coXOYyoZTUPbsf2-325" style="edgeStyle=orthogonalEdgeStyle;rounded=0;orthogonalLoop=1;jettySize=auto;html=1;exitX=0.5;exitY=0;exitDx=0;exitDy=0;entryX=0.5;entryY=1;entryDx=0;entryDy=0;" parent="1" source="oK9O7coXOYyoZTUPbsf2-326" target="oK9O7coXOYyoZTUPbsf2-276" edge="1">
          <mxGeometry relative="1" as="geometry">
            <Array as="points">
              <mxPoint x="323" y="690" />
              <mxPoint x="398" y="690" />
            </Array>
          </mxGeometry>
        </mxCell>
        <mxCell id="oK9O7coXOYyoZTUPbsf2-326" value="h1" style="rounded=1;whiteSpace=wrap;html=1;fillColor=#009900;fontColor=#FFFFFF;" parent="1" vertex="1">
          <mxGeometry x="310" y="713.25" width="25" height="22.5" as="geometry" />
        </mxCell>
        <mxCell id="oK9O7coXOYyoZTUPbsf2-327" style="edgeStyle=orthogonalEdgeStyle;rounded=0;orthogonalLoop=1;jettySize=auto;html=1;exitX=0.5;exitY=0;exitDx=0;exitDy=0;entryX=0.5;entryY=1;entryDx=0;entryDy=0;" parent="1" source="oK9O7coXOYyoZTUPbsf2-328" target="oK9O7coXOYyoZTUPbsf2-276" edge="1">
          <mxGeometry relative="1" as="geometry">
            <Array as="points">
              <mxPoint x="353" y="690" />
              <mxPoint x="398" y="690" />
            </Array>
          </mxGeometry>
        </mxCell>
        <mxCell id="oK9O7coXOYyoZTUPbsf2-328" value="h2" style="rounded=1;whiteSpace=wrap;html=1;fillColor=#009900;fontColor=#FFFFFF;" parent="1" vertex="1">
          <mxGeometry x="340" y="713.25" width="25" height="22.5" as="geometry" />
        </mxCell>
        <mxCell id="oK9O7coXOYyoZTUPbsf2-329" style="edgeStyle=orthogonalEdgeStyle;rounded=0;orthogonalLoop=1;jettySize=auto;html=1;exitX=0.5;exitY=0;exitDx=0;exitDy=0;entryX=0.5;entryY=1;entryDx=0;entryDy=0;" parent="1" source="oK9O7coXOYyoZTUPbsf2-330" target="oK9O7coXOYyoZTUPbsf2-276" edge="1">
          <mxGeometry relative="1" as="geometry">
            <Array as="points">
              <mxPoint x="383" y="690" />
              <mxPoint x="398" y="690" />
            </Array>
          </mxGeometry>
        </mxCell>
        <mxCell id="oK9O7coXOYyoZTUPbsf2-330" value="h3" style="rounded=1;whiteSpace=wrap;html=1;fillColor=#009900;fontColor=#FFFFFF;" parent="1" vertex="1">
          <mxGeometry x="370" y="713.25" width="25" height="22.5" as="geometry" />
        </mxCell>
        <mxCell id="oK9O7coXOYyoZTUPbsf2-331" style="edgeStyle=orthogonalEdgeStyle;rounded=0;orthogonalLoop=1;jettySize=auto;html=1;exitX=0.5;exitY=0;exitDx=0;exitDy=0;entryX=0.5;entryY=1;entryDx=0;entryDy=0;" parent="1" source="oK9O7coXOYyoZTUPbsf2-332" target="oK9O7coXOYyoZTUPbsf2-276" edge="1">
          <mxGeometry relative="1" as="geometry">
            <Array as="points">
              <mxPoint x="412" y="690" />
              <mxPoint x="398" y="690" />
            </Array>
          </mxGeometry>
        </mxCell>
        <mxCell id="oK9O7coXOYyoZTUPbsf2-332" value="h4" style="rounded=1;whiteSpace=wrap;html=1;fillColor=#009900;fontColor=#FFFFFF;" parent="1" vertex="1">
          <mxGeometry x="400" y="713.25" width="25" height="22.5" as="geometry" />
        </mxCell>
        <mxCell id="oK9O7coXOYyoZTUPbsf2-333" style="edgeStyle=orthogonalEdgeStyle;rounded=0;orthogonalLoop=1;jettySize=auto;html=1;exitX=0.5;exitY=0;exitDx=0;exitDy=0;entryX=0.5;entryY=1;entryDx=0;entryDy=0;" parent="1" source="oK9O7coXOYyoZTUPbsf2-334" target="oK9O7coXOYyoZTUPbsf2-276" edge="1">
          <mxGeometry relative="1" as="geometry">
            <Array as="points">
              <mxPoint x="442" y="690" />
              <mxPoint x="398" y="690" />
            </Array>
          </mxGeometry>
        </mxCell>
        <mxCell id="oK9O7coXOYyoZTUPbsf2-334" value="h5" style="rounded=1;whiteSpace=wrap;html=1;fillColor=#009900;fontColor=#FFFFFF;" parent="1" vertex="1">
          <mxGeometry x="430" y="713.25" width="25" height="22.5" as="geometry" />
        </mxCell>
        <mxCell id="oK9O7coXOYyoZTUPbsf2-335" style="edgeStyle=orthogonalEdgeStyle;rounded=0;orthogonalLoop=1;jettySize=auto;html=1;exitX=0.5;exitY=0;exitDx=0;exitDy=0;entryX=0.5;entryY=1;entryDx=0;entryDy=0;" parent="1" source="oK9O7coXOYyoZTUPbsf2-336" target="oK9O7coXOYyoZTUPbsf2-276" edge="1">
          <mxGeometry relative="1" as="geometry">
            <Array as="points">
              <mxPoint x="472" y="690" />
              <mxPoint x="398" y="690" />
            </Array>
          </mxGeometry>
        </mxCell>
        <mxCell id="oK9O7coXOYyoZTUPbsf2-336" value="h6" style="rounded=1;whiteSpace=wrap;html=1;fillColor=#009900;fontColor=#FFFFFF;" parent="1" vertex="1">
          <mxGeometry x="460" y="713.25" width="25" height="22.5" as="geometry" />
        </mxCell>
        <mxCell id="oK9O7coXOYyoZTUPbsf2-337" value="Transformer 2" style="rounded=1;whiteSpace=wrap;html=1;fillColor=#990099;fontColor=#FFFFFF;" parent="1" vertex="1">
          <mxGeometry x="337.5" y="575.5" width="120" height="110" as="geometry" />
        </mxCell>
        <mxCell id="oK9O7coXOYyoZTUPbsf2-338" value="Transformer 1" style="rounded=1;whiteSpace=wrap;html=1;fillColor=#FF8000;fontColor=#FFFFFF;" parent="1" vertex="1">
          <mxGeometry x="107.5" y="546.25" width="120" height="110" as="geometry" />
        </mxCell>
        <mxCell id="oK9O7coXOYyoZTUPbsf2-339" style="edgeStyle=orthogonalEdgeStyle;rounded=0;orthogonalLoop=1;jettySize=auto;html=1;exitX=0.5;exitY=0;exitDx=0;exitDy=0;entryX=0.5;entryY=1;entryDx=0;entryDy=0;" parent="1" source="oK9O7coXOYyoZTUPbsf2-345" target="oK9O7coXOYyoZTUPbsf2-353" edge="1">
          <mxGeometry relative="1" as="geometry">
            <Array as="points">
              <mxPoint x="868" y="556.01" />
              <mxPoint x="793" y="556.01" />
            </Array>
          </mxGeometry>
        </mxCell>
        <mxCell id="oK9O7coXOYyoZTUPbsf2-340" style="edgeStyle=orthogonalEdgeStyle;rounded=0;orthogonalLoop=1;jettySize=auto;html=1;exitX=0.5;exitY=0;exitDx=0;exitDy=0;entryX=0.5;entryY=1;entryDx=0;entryDy=0;" parent="1" source="oK9O7coXOYyoZTUPbsf2-345" target="oK9O7coXOYyoZTUPbsf2-354" edge="1">
          <mxGeometry relative="1" as="geometry">
            <Array as="points">
              <mxPoint x="868" y="556.01" />
              <mxPoint x="823" y="556.01" />
            </Array>
          </mxGeometry>
        </mxCell>
        <mxCell id="oK9O7coXOYyoZTUPbsf2-341" style="edgeStyle=orthogonalEdgeStyle;rounded=0;orthogonalLoop=1;jettySize=auto;html=1;exitX=0.5;exitY=0;exitDx=0;exitDy=0;entryX=0.5;entryY=1;entryDx=0;entryDy=0;" parent="1" source="oK9O7coXOYyoZTUPbsf2-345" target="oK9O7coXOYyoZTUPbsf2-355" edge="1">
          <mxGeometry relative="1" as="geometry">
            <Array as="points">
              <mxPoint x="868" y="556.01" />
              <mxPoint x="853" y="556.01" />
            </Array>
          </mxGeometry>
        </mxCell>
        <mxCell id="oK9O7coXOYyoZTUPbsf2-342" style="edgeStyle=orthogonalEdgeStyle;rounded=0;orthogonalLoop=1;jettySize=auto;html=1;exitX=0.5;exitY=0;exitDx=0;exitDy=0;entryX=0.5;entryY=1;entryDx=0;entryDy=0;" parent="1" source="oK9O7coXOYyoZTUPbsf2-345" target="oK9O7coXOYyoZTUPbsf2-356" edge="1">
          <mxGeometry relative="1" as="geometry">
            <Array as="points">
              <mxPoint x="868" y="556.01" />
              <mxPoint x="883" y="556.01" />
            </Array>
          </mxGeometry>
        </mxCell>
        <mxCell id="oK9O7coXOYyoZTUPbsf2-343" style="edgeStyle=orthogonalEdgeStyle;rounded=0;orthogonalLoop=1;jettySize=auto;html=1;exitX=0.5;exitY=0;exitDx=0;exitDy=0;entryX=0.5;entryY=1;entryDx=0;entryDy=0;" parent="1" source="oK9O7coXOYyoZTUPbsf2-345" target="oK9O7coXOYyoZTUPbsf2-357" edge="1">
          <mxGeometry relative="1" as="geometry">
            <Array as="points">
              <mxPoint x="868" y="556.01" />
              <mxPoint x="913" y="556.01" />
            </Array>
          </mxGeometry>
        </mxCell>
        <mxCell id="oK9O7coXOYyoZTUPbsf2-344" style="edgeStyle=orthogonalEdgeStyle;rounded=0;orthogonalLoop=1;jettySize=auto;html=1;exitX=0.5;exitY=0;exitDx=0;exitDy=0;entryX=0.5;entryY=1;entryDx=0;entryDy=0;" parent="1" source="oK9O7coXOYyoZTUPbsf2-345" target="oK9O7coXOYyoZTUPbsf2-358" edge="1">
          <mxGeometry relative="1" as="geometry">
            <Array as="points">
              <mxPoint x="868" y="556.01" />
              <mxPoint x="943" y="556.01" />
            </Array>
          </mxGeometry>
        </mxCell>
        <mxCell id="oK9O7coXOYyoZTUPbsf2-345" value="Embedding" style="rounded=1;whiteSpace=wrap;html=1;fillColor=#009999;fontColor=#FFFFFF;" parent="1" vertex="1">
          <mxGeometry x="782.5" y="692.26" width="170" height="30" as="geometry" />
        </mxCell>
        <mxCell id="oK9O7coXOYyoZTUPbsf2-346" value="" style="shape=mxgraph.signs.nature.snowflake;html=1;pointerEvents=1;fillColor=#FFFFFF;strokeColor=none;verticalLabelPosition=bottom;verticalAlign=top;align=center;" parent="1" vertex="1">
          <mxGeometry x="792.5" y="699.76" width="15" height="15" as="geometry" />
        </mxCell>
        <mxCell id="oK9O7coXOYyoZTUPbsf2-347" value="t1" style="rounded=1;whiteSpace=wrap;html=1;fillColor=#0000CC;fontColor=#FFFFFF;" parent="1" vertex="1">
          <mxGeometry x="780" y="729.26" width="25" height="22.5" as="geometry" />
        </mxCell>
        <mxCell id="oK9O7coXOYyoZTUPbsf2-348" value="t2" style="rounded=1;whiteSpace=wrap;html=1;fillColor=#0000CC;fontColor=#FFFFFF;" parent="1" vertex="1">
          <mxGeometry x="810" y="729.26" width="25" height="22.5" as="geometry" />
        </mxCell>
        <mxCell id="oK9O7coXOYyoZTUPbsf2-349" value="t3" style="rounded=1;whiteSpace=wrap;html=1;fillColor=#0000CC;fontColor=#FFFFFF;" parent="1" vertex="1">
          <mxGeometry x="840" y="729.26" width="25" height="22.5" as="geometry" />
        </mxCell>
        <mxCell id="oK9O7coXOYyoZTUPbsf2-350" value="t4" style="rounded=1;whiteSpace=wrap;html=1;fillColor=#0000CC;fontColor=#FFFFFF;" parent="1" vertex="1">
          <mxGeometry x="870" y="729.26" width="25" height="22.5" as="geometry" />
        </mxCell>
        <mxCell id="oK9O7coXOYyoZTUPbsf2-351" value="t5" style="rounded=1;whiteSpace=wrap;html=1;fillColor=#0000CC;fontColor=#FFFFFF;" parent="1" vertex="1">
          <mxGeometry x="900" y="729.26" width="25" height="22.5" as="geometry" />
        </mxCell>
        <mxCell id="oK9O7coXOYyoZTUPbsf2-352" value="t6" style="rounded=1;whiteSpace=wrap;html=1;fillColor=#0000CC;fontColor=#FFFFFF;" parent="1" vertex="1">
          <mxGeometry x="930" y="729.26" width="25" height="22.5" as="geometry" />
        </mxCell>
        <mxCell id="oK9O7coXOYyoZTUPbsf2-353" value="h1" style="rounded=1;whiteSpace=wrap;html=1;fillColor=#009900;fontColor=#FFFFFF;" parent="1" vertex="1">
          <mxGeometry x="780" y="511.26" width="25" height="22.5" as="geometry" />
        </mxCell>
        <mxCell id="oK9O7coXOYyoZTUPbsf2-354" value="h2" style="rounded=1;whiteSpace=wrap;html=1;fillColor=#009900;fontColor=#FFFFFF;" parent="1" vertex="1">
          <mxGeometry x="810" y="511.26" width="25" height="22.5" as="geometry" />
        </mxCell>
        <mxCell id="oK9O7coXOYyoZTUPbsf2-355" value="h3" style="rounded=1;whiteSpace=wrap;html=1;fillColor=#009900;fontColor=#FFFFFF;" parent="1" vertex="1">
          <mxGeometry x="840" y="511.26" width="25" height="22.5" as="geometry" />
        </mxCell>
        <mxCell id="oK9O7coXOYyoZTUPbsf2-356" value="h4" style="rounded=1;whiteSpace=wrap;html=1;fillColor=#009900;fontColor=#FFFFFF;" parent="1" vertex="1">
          <mxGeometry x="870" y="511.26" width="25" height="22.5" as="geometry" />
        </mxCell>
        <mxCell id="oK9O7coXOYyoZTUPbsf2-357" value="h5" style="rounded=1;whiteSpace=wrap;html=1;fillColor=#009900;fontColor=#FFFFFF;" parent="1" vertex="1">
          <mxGeometry x="900" y="511.26" width="25" height="22.5" as="geometry" />
        </mxCell>
        <mxCell id="oK9O7coXOYyoZTUPbsf2-358" value="h6" style="rounded=1;whiteSpace=wrap;html=1;fillColor=#009900;fontColor=#FFFFFF;" parent="1" vertex="1">
          <mxGeometry x="930" y="511.26" width="25" height="22.5" as="geometry" />
        </mxCell>
        <mxCell id="oK9O7coXOYyoZTUPbsf2-359" style="edgeStyle=orthogonalEdgeStyle;rounded=0;orthogonalLoop=1;jettySize=auto;html=1;exitX=0.5;exitY=0;exitDx=0;exitDy=0;entryX=0.5;entryY=1;entryDx=0;entryDy=0;" parent="1" source="oK9O7coXOYyoZTUPbsf2-360" edge="1">
          <mxGeometry relative="1" as="geometry">
            <Array as="points">
              <mxPoint x="868" y="556.01" />
              <mxPoint x="1068" y="556.01" />
            </Array>
            <mxPoint x="1067.5" y="533.76" as="targetPoint" />
          </mxGeometry>
        </mxCell>
        <mxCell id="oK9O7coXOYyoZTUPbsf2-360" value="Transformer 1" style="rounded=1;whiteSpace=wrap;html=1;fillColor=#FF8000;fontColor=#FFFFFF;" parent="1" vertex="1">
          <mxGeometry x="807.5" y="562.26" width="120" height="110" as="geometry" />
        </mxCell>
      </root>
    </mxGraphModel>
  </diagram>
</mxfile>
